<svg width="533" height="112" viewBox="0 0 533 112" fill="none" xmlns="http://www.w3.org/2000/svg">
<path d="M105.312 0.640625L97.5 34.3125H94.4531C94.0885 25.1458 91.8229 18.3229 87.6562 13.8438C83.5417 9.3125 78.151 7.04688 71.4844 7.04688C64.2969 7.04688 57.1354 10.1198 50 16.2656C42.8646 22.4115 36.8229 31.8125 31.875 44.4688C27.8646 54.7292 25.8594 64.8594 25.8594 74.8594C25.8594 83.8177 28.0469 90.6667 32.4219 95.4062C36.849 100.094 42.8906 102.438 50.5469 102.438C56.7448 102.438 62.3958 101.083 67.5 98.375C72.6042 95.6667 77.7604 91.2656 82.9688 85.1719H86.7188C80.2604 94.8594 73.724 101.656 67.1094 105.562C60.5469 109.469 52.5 111.422 42.9688 111.422C30.2083 111.422 19.9219 107.568 12.1094 99.8594C4.34896 92.099 0.46875 81.9948 0.46875 69.5469C0.46875 57.8802 3.56771 46.7604 9.76562 36.1875C15.9635 25.5625 24.8698 16.9948 36.4844 10.4844C48.151 3.92188 59.7396 0.640625 71.25 0.640625C75.625 0.640625 81.0677 1.57812 87.5781 3.45312C90.9115 4.39062 93.2292 4.85938 94.5312 4.85938C97.1354 4.85938 99.7656 3.45312 102.422 0.640625H105.312ZM157.297 36.5781C161.411 36.5781 165.266 37.5417 168.859 39.4688C172.505 41.3438 175.24 43.974 177.062 47.3594C178.938 50.7448 179.875 54.4948 179.875 58.6094C179.875 67.0469 177.505 75.4844 172.766 83.9219C168.078 92.3594 161.88 99.026 154.172 103.922C146.464 108.766 138.703 111.188 130.891 111.188C123.807 111.188 118.312 109.078 114.406 104.859C110.552 100.641 108.625 95.4844 108.625 89.3906C108.625 82.151 110.057 75.3802 112.922 69.0781C115.839 62.724 119.51 57.2031 123.938 52.5156C128.417 47.776 133.547 43.9479 139.328 41.0312C145.109 38.0625 151.099 36.5781 157.297 36.5781ZM154.094 40.7188C151.333 40.7188 149.042 41.526 147.219 43.1406C143.573 46.4219 139.458 54.1042 134.875 66.1875C130.292 78.2188 128 89.0781 128 98.7656C128 101.161 128.729 103.141 130.188 104.703C131.646 106.266 133.365 107.047 135.344 107.047C137.375 107.047 139.172 106.422 140.734 105.172C143.026 103.297 145.839 99.1042 149.172 92.5938C152.505 86.0312 155.24 78.8177 157.375 70.9531C159.51 63.0365 160.578 55.7969 160.578 49.2344C160.578 46.526 159.927 44.4427 158.625 42.9844C157.323 41.474 155.812 40.7188 154.094 40.7188ZM230.609 36.5781L218.812 80.4844C228.5 59.0781 235.792 45.901 240.688 40.9531C243.552 38.0365 246.573 36.5781 249.75 36.5781C251.938 36.5781 253.708 37.3854 255.062 39C256.417 40.5625 257.094 42.8021 257.094 45.7188C257.094 50.7708 255.87 55.0156 253.422 58.4531C251.859 60.6406 250.115 61.7344 248.188 61.7344C246.104 61.7344 244.542 60.7708 243.5 58.8438C242.458 56.9167 241.729 55.7969 241.312 55.4844C240.896 55.1198 240.453 54.9375 239.984 54.9375C239.464 54.9375 238.917 55.0938 238.344 55.4062C237.198 56.0312 235.688 57.5677 233.812 60.0156C231.99 62.4115 229.724 66.4479 227.016 72.125C224.307 77.8021 222.198 82.6198 220.688 86.5781C219.177 90.4844 217.068 97.9583 214.359 109H195.453L208.344 57.2031C209.281 53.349 209.75 50.7969 209.75 49.5469C209.75 48.1406 209.49 47.0469 208.969 46.2656C208.5 45.4844 207.823 44.9115 206.938 44.5469C206.104 44.1823 204.333 44 201.625 44L202.328 41.7344L225.922 36.5781H230.609ZM315.641 36.5781C319.755 36.5781 323.609 37.5417 327.203 39.4688C330.849 41.3438 333.583 43.974 335.406 47.3594C337.281 50.7448 338.219 54.4948 338.219 58.6094C338.219 67.0469 335.849 75.4844 331.109 83.9219C326.422 92.3594 320.224 99.026 312.516 103.922C304.807 108.766 297.047 111.188 289.234 111.188C282.151 111.188 276.656 109.078 272.75 104.859C268.896 100.641 266.969 95.4844 266.969 89.3906C266.969 82.151 268.401 75.3802 271.266 69.0781C274.182 62.724 277.854 57.2031 282.281 52.5156C286.76 47.776 291.891 43.9479 297.672 41.0312C303.453 38.0625 309.443 36.5781 315.641 36.5781ZM312.438 40.7188C309.677 40.7188 307.385 41.526 305.562 43.1406C301.917 46.4219 297.802 54.1042 293.219 66.1875C288.635 78.2188 286.344 89.0781 286.344 98.7656C286.344 101.161 287.073 103.141 288.531 104.703C289.99 106.266 291.708 107.047 293.688 107.047C295.719 107.047 297.516 106.422 299.078 105.172C301.37 103.297 304.182 99.1042 307.516 92.5938C310.849 86.0312 313.583 78.8177 315.719 70.9531C317.854 63.0365 318.922 55.7969 318.922 49.2344C318.922 46.526 318.271 44.4427 316.969 42.9844C315.667 41.474 314.156 40.7188 312.438 40.7188ZM401.688 0.640625L375.828 88.6094C374.318 93.8177 373.562 97.0729 373.562 98.375C373.562 99.0521 373.771 99.625 374.188 100.094C374.656 100.562 375.151 100.797 375.672 100.797C376.609 100.797 377.495 100.432 378.328 99.7031C380.828 97.6719 383.615 94.2344 386.688 89.3906L389.734 90.7969C384.786 98.7135 379.917 104.365 375.125 107.75C371.844 110.042 368.354 111.188 364.656 111.188C361.219 111.188 358.484 110.276 356.453 108.453C354.422 106.578 353.406 104.339 353.406 101.734C353.406 99.8073 354.031 96.7083 355.281 92.4375L376.375 20.4062C377.521 16.4479 378.094 13.8177 378.094 12.5156C378.094 11.2656 377.547 10.276 376.453 9.54688C374.995 8.50521 372.781 8.0625 369.812 8.21875L370.672 5.25L397 0.640625H401.688ZM454.219 0.640625L428.359 88.6094C426.849 93.8177 426.094 97.0729 426.094 98.375C426.094 99.0521 426.302 99.625 426.719 100.094C427.188 100.562 427.682 100.797 428.203 100.797C429.141 100.797 430.026 100.432 430.859 99.7031C433.359 97.6719 436.146 94.2344 439.219 89.3906L442.266 90.7969C437.318 98.7135 432.448 104.365 427.656 107.75C424.375 110.042 420.885 111.188 417.188 111.188C413.75 111.188 411.016 110.276 408.984 108.453C406.953 106.578 405.938 104.339 405.938 101.734C405.938 99.8073 406.562 96.7083 407.812 92.4375L428.906 20.4062C430.052 16.4479 430.625 13.8177 430.625 12.5156C430.625 11.2656 430.078 10.276 428.984 9.54688C427.526 8.50521 425.312 8.0625 422.344 8.21875L423.203 5.25L449.531 0.640625H454.219ZM532.766 37.6719L517.609 89.625L516.047 95.9531C515.891 96.7344 515.812 97.3073 515.812 97.6719C515.812 98.2969 516.021 98.8438 516.438 99.3125C516.906 99.7812 517.375 100.016 517.844 100.016C518.938 100.016 520.448 99.1823 522.375 97.5156C523.156 96.8385 525.031 94.4427 528 90.3281L530.734 91.7344C527.036 98.5052 523.078 103.453 518.859 106.578C514.693 109.651 510.188 111.188 505.344 111.188C502.375 111.188 500.109 110.432 498.547 108.922C496.984 107.359 496.203 105.406 496.203 103.062C496.203 101.031 497.036 97.2552 498.703 91.7344L500.578 85.4062C494.536 95.7708 488.729 103.115 483.156 107.438C479.927 109.938 476.49 111.188 472.844 111.188C468.052 111.188 464.589 109.234 462.453 105.328C460.318 101.37 459.25 96.9167 459.25 91.9688C459.25 84.625 461.49 76.2135 465.969 66.7344C470.448 57.2031 476.333 49.5469 483.625 43.7656C489.615 38.974 495.24 36.5781 500.5 36.5781C503.417 36.5781 505.76 37.4375 507.531 39.1562C509.302 40.8229 510.604 43.8958 511.438 48.375L514.25 38.7656L532.766 37.6719ZM507.766 52.5156C507.766 48.2969 507.115 45.25 505.812 43.375C504.875 42.0729 503.599 41.4219 501.984 41.4219C500.37 41.4219 498.703 42.2031 496.984 43.7656C493.495 46.9948 489.719 53.5573 485.656 63.4531C481.646 73.2969 479.641 81.8125 479.641 89C479.641 91.7604 480.083 93.7656 480.969 95.0156C481.906 96.2135 482.922 96.8125 484.016 96.8125C486.359 96.8125 488.729 95.4583 491.125 92.75C494.562 88.8958 497.661 84.1823 500.422 78.6094C505.318 68.8177 507.766 60.1198 507.766 52.5156Z" fill="#3A3A3A"/>
</svg>
