<svg width="334" height="334" viewBox="0 0 334 334" fill="none" xmlns="http://www.w3.org/2000/svg">
<path d="M167 330C257.022 330 330 257.022 330 167C330 76.9776 257.022 4 167 4C76.9776 4 4 76.9776 4 167C4 257.022 76.9776 330 167 330Z" stroke="#EFE5E5" stroke-width="8" stroke-miterlimit="10"/>
<path d="M167 74.9331V289.067" stroke="#EFE5E5" stroke-width="3" stroke-miterlimit="10"/>
<path d="M206.168 88.1901C206.168 124.604 188.177 154.087 165.881 154.087H168.119C157.316 154.087 127.832 135.751 127.832 88.1901" stroke="#EFE5E5" stroke-width="3" stroke-miterlimit="10"/>
<path d="M117.975 304.089C117.975 228.378 142.208 156.67 165.709 156.67H168.334C191.835 156.67 216.068 228.421 216.068 304.089" stroke="#EFE5E5" stroke-width="3" stroke-miterlimit="10"/>
<path d="M164.805 155.293C150.902 148.75 142.466 144.618 122.193 129.209C116.77 125.077 115.694 123.528 112.638 125.723C106.999 129.812 98.3049 149.783 110.185 158.306C124.13 168.291 169.798 157.66 164.805 155.293Z" stroke="#EFE5E5" stroke-width="3" stroke-miterlimit="10"/>
<path d="M169.195 155.293C183.097 148.75 191.534 144.618 211.806 129.209C217.23 125.077 218.306 123.528 221.362 125.723C227 129.812 235.695 149.783 223.815 158.306C209.87 168.291 164.202 157.66 169.195 155.293Z" stroke="#EFE5E5" stroke-width="3" stroke-miterlimit="10"/>
<path d="M183.614 54.4022C183.614 51.2171 183.528 48.032 183.098 44.8899C182.409 39.6388 181.118 35.0763 179.568 34.1725C178.535 33.5699 175.953 33.9142 172.768 34.8181C170.4 32.1925 168.248 30.3848 167 30.3848C165.752 30.3848 163.557 32.1495 161.232 34.8181C158.09 33.9142 155.508 33.5699 154.475 34.1725C152.925 35.0763 151.634 39.6388 150.945 44.8899C150.644 47.1281 150.472 49.3663 150.429 51.6045C150.429 52.6375 150.3 53.7135 150.343 54.7465C150.429 57.5873 150.429 60.4281 151.29 63.1828C152.021 65.5931 153.313 67.8313 155.163 69.553C156.282 70.629 157.66 71.5329 158.908 72.3937C160.156 73.2546 161.534 73.9433 162.954 74.3737C164.245 74.7611 165.623 74.9763 167 74.9763C168.937 74.9763 170.874 74.5458 172.638 73.7711C173.93 73.2115 175.092 72.3938 176.254 71.576C177.33 70.8012 178.363 70.0695 179.267 69.1226C180.989 67.3148 182.194 65.0336 182.882 62.5802C183.184 61.5041 183.399 60.385 183.485 59.309C183.571 58.3621 183.485 57.4151 183.528 56.5113C183.528 55.8226 183.528 55.0909 183.528 54.4022H183.614Z" fill="#EFE5E5"/>
<path d="M142.681 67.2285C142.595 64.0434 142.38 60.8583 141.863 57.7162C141.003 52.4651 139.582 47.9457 138.033 47.1279C137 46.5684 134.417 46.9557 131.275 47.9887C128.822 45.4062 126.626 43.6846 125.378 43.7276C124.13 43.7706 121.978 45.6214 119.74 48.3331C116.555 47.5153 113.972 47.257 112.982 47.9027C111.476 48.8496 110.314 53.4551 109.797 58.7062C109.582 60.9444 109.453 63.1826 109.496 65.4208C109.496 66.4538 109.41 67.5298 109.496 68.5628C109.668 71.4036 109.754 74.2444 110.701 76.956C111.519 79.3233 112.896 81.5185 114.747 83.2401C115.909 84.2731 117.286 85.134 118.578 85.9518C119.869 86.7696 121.246 87.4152 122.71 87.8026C124.044 88.1469 125.421 88.3191 126.756 88.276C128.693 88.233 130.586 87.7595 132.351 86.8987C133.642 86.2961 134.761 85.4353 135.881 84.5744C136.914 83.7566 137.947 83.0249 138.85 82.0349C140.529 80.1411 141.648 77.8168 142.251 75.4065C142.509 74.3304 142.681 73.2114 142.767 72.0923C142.81 71.1453 142.767 70.1984 142.767 69.2945C142.767 68.6059 142.767 67.8741 142.767 67.1855L142.681 67.2285Z" fill="#EFE5E5"/>
<path d="M221.75 67.2285C221.663 64.0434 221.448 60.8583 220.932 57.7162C220.071 52.4651 218.65 47.9457 217.101 47.1279C216.068 46.5684 213.485 46.9557 210.343 47.9887C207.89 45.4062 205.695 43.6846 204.447 43.7276C203.198 43.7706 201.046 45.6214 198.808 48.3331C195.623 47.5153 193.04 47.257 192.051 47.9027C190.544 48.8496 189.382 53.4551 188.865 58.7062C188.65 60.9444 188.521 63.1826 188.564 65.4208C188.564 66.4538 188.478 67.5298 188.564 68.5628C188.736 71.4036 188.822 74.2444 189.769 76.956C190.587 79.3233 191.964 81.5185 193.815 83.2401C194.977 84.2731 196.355 85.134 197.646 85.9518C198.937 86.7696 200.315 87.4152 201.778 87.8026C203.112 88.1469 204.49 88.3191 205.824 88.276C207.761 88.233 209.655 87.7595 211.419 86.8987C212.711 86.2961 213.83 85.4353 214.949 84.5744C215.982 83.7566 217.015 83.0249 217.919 82.0349C219.597 80.1411 220.717 77.8168 221.319 75.4065C221.577 74.3304 221.749 73.2114 221.836 72.0923C221.879 71.1453 221.836 70.1984 221.836 69.2945C221.836 68.6059 221.836 67.8741 221.836 67.1855L221.75 67.2285Z" fill="#EFE5E5"/>
</svg>
